<svg xmlns="http://www.w3.org/2000/svg" version="1.1" xmlns:xlink="http://www.w3.org/1999/xlink" xmlns:svgjs="http://svgjs.dev/svgjs" width="1000" height="1000" viewBox="0 0 1000 1000"><rect width="1000" height="1000" fill="#000000"></rect><g transform="matrix(0.7,0,0,0.7,149.57576417346172,314.0657769537488)"><svg viewBox="0 0 396 210" data-background-color="#ffffff" preserveAspectRatio="xMidYMid meet" height="530" width="1000" xmlns="http://www.w3.org/2000/svg" xmlns:xlink="http://www.w3.org/1999/xlink"><defs></defs><g id="tight-bounds" transform="matrix(1,0,0,1,0.23999626758450177,0.24578662995349987)"><svg viewBox="0 0 395.52 209.508426740093" height="209.508426740093" width="395.52"><g><svg viewBox="0 0 395.52 209.508426740093" height="209.508426740093" width="395.52"><g transform="matrix(1,0,0,1,0,129.48461278660463)"><svg viewBox="0 0 395.52 80.02381395348836" height="80.02381395348836" width="395.52"><g><svg viewBox="0 0 395.52 80.02381395348836" height="80.02381395348836" width="395.52"><g><svg viewBox="0 0 395.52 80.02381395348836" height="80.02381395348836" width="395.52"><g transform="matrix(1,0,0,1,0,0)"><svg width="395.52" viewBox="4.949999809265137 -37.849998474121094 236.47999572753906 47.849998474121094" height="80.02381395348836" data-palette-color="#1a2dd1"><path d="M19.95-35.4Q26.95-35.4 31-31.33 35.05-27.25 35.05-19.65L35.05-19.65 35.05 0 30.05 0 30.05-9.65 9.85-9.65 9.85 0 4.95 0 4.95-19.65Q4.95-27.25 9-31.33 13.05-35.4 19.95-35.4L19.95-35.4ZM9.85-14L30.05-14 30.05-20.1Q30.05-25.45 27.38-28.2 24.7-30.95 19.95-30.95L19.95-30.95Q15.2-30.95 12.53-28.2 9.85-25.45 9.85-20.1L9.85-20.1 9.85-14ZM60.65-30.65L53.9-30.65 53.9-4.35 60.65-4.35 60.65 0 42.15 0 42.15-4.35 48.9-4.35 48.9-30.65 42.15-30.65 42.15-35 60.65-35 60.65-30.65ZM87.55-37.1L92.34-37.1 92.34 0 87.75 0 87.75-4.2Q86.15-2 83.7-0.85 81.25 0.3 78.3 0.3L78.3 0.3Q74.45 0.3 71.39-1.4 68.34-3.1 66.62-6.18 64.89-9.25 64.89-13.25L64.89-13.25Q64.89-17.25 66.62-20.3 68.34-23.35 71.39-25.05 74.45-26.75 78.3-26.75L78.3-26.75Q81.15-26.75 83.55-25.68 85.95-24.6 87.55-22.5L87.55-22.5 87.55-37.1ZM78.7-3.9Q81.2-3.9 83.25-5.08 85.3-6.25 86.45-8.38 87.59-10.5 87.59-13.25L87.59-13.25Q87.59-16 86.45-18.13 85.3-20.25 83.25-21.4 81.2-22.55 78.7-22.55L78.7-22.55Q76.15-22.55 74.12-21.4 72.09-20.25 70.92-18.13 69.75-16 69.75-13.25L69.75-13.25Q69.75-10.5 70.92-8.38 72.09-6.25 74.12-5.08 76.15-3.9 78.7-3.9L78.7-3.9ZM113.39-3.9Q118.14-3.9 121.04-7.1L121.04-7.1 123.64-4Q121.89-1.9 119.22-0.8 116.54 0.3 113.24 0.3L113.24 0.3Q109.04 0.3 105.79-1.43 102.54-3.15 100.77-6.25 98.99-9.35 98.99-13.25L98.99-13.25Q98.99-17.1 100.72-20.2 102.44-23.3 105.47-25.03 108.49-26.75 112.29-26.75L112.29-26.75Q115.89-26.75 118.84-25.13 121.79-23.5 123.54-20.55 125.29-17.6 125.34-13.75L125.34-13.75 104.29-9.65Q105.29-6.9 107.67-5.4 110.04-3.9 113.39-3.9L113.39-3.9ZM112.29-22.7Q109.79-22.7 107.82-21.55 105.84-20.4 104.74-18.32 103.64-16.25 103.64-13.5L103.64-13.5 103.64-13 120.59-16.2Q119.94-19.1 117.69-20.9 115.44-22.7 112.29-22.7L112.29-22.7ZM146.19-26.75Q151.24-26.75 154.22-23.83 157.19-20.9 157.19-15.25L157.19-15.25 157.19 0 152.39 0 152.39-14.7Q152.39-18.55 150.54-20.5 148.69-22.45 145.24-22.45L145.24-22.45Q141.34-22.45 139.09-20.18 136.84-17.9 136.84-13.65L136.84-13.65 136.84 0 132.04 0 132.04-26.5 136.64-26.5 136.64-22.5Q138.09-24.55 140.56-25.65 143.04-26.75 146.19-26.75L146.19-26.75ZM178.54-5L180.04-1.55Q178.99-0.65 177.44-0.18 175.89 0.3 174.24 0.3L174.24 0.3Q170.24 0.3 168.04-1.85 165.84-4 165.84-8L165.84-8 165.84-32.3 170.64-32.3 170.64-26.5 178.24-26.5 178.24-22.55 170.64-22.55 170.64-8.2Q170.64-6.05 171.71-4.9 172.79-3.75 174.79-3.75L174.79-3.75Q176.99-3.75 178.54-5L178.54-5ZM185.84 0L185.84-26.5 190.64-26.5 190.64 0 185.84 0ZM188.24-31.6Q186.84-31.6 185.91-32.5 184.99-33.4 184.99-34.7L184.99-34.7Q184.99-36 185.91-36.93 186.84-37.85 188.24-37.85L188.24-37.85Q189.64-37.85 190.56-36.98 191.49-36.1 191.49-34.8L191.49-34.8Q191.49-33.45 190.56-32.52 189.64-31.6 188.24-31.6L188.24-31.6ZM208.78-33.45Q204.48-33.45 204.48-28.8L204.48-28.8 204.48-26.5 212.23-26.5 212.23-22.55 204.58-22.55 204.58 0 199.78 0 199.78-28.85Q199.78-32.8 202.08-35.1 204.38-37.4 208.53-37.4L208.53-37.4Q210.13-37.4 211.53-37 212.93-36.6 213.93-35.85L213.93-35.85 212.48-32.2Q210.83-33.45 208.78-33.45L208.78-33.45ZM236.63-26.5L241.43-26.5 241.43-3.6Q241.43 3.35 238.18 6.68 234.93 10 228.43 10L228.43 10Q224.88 10 221.66 8.97 218.43 7.95 216.38 6.05L216.38 6.05 218.73 2.35Q220.48 3.95 222.96 4.85 225.43 5.75 228.18 5.75L228.18 5.75Q232.53 5.75 234.58 3.58 236.63 1.4 236.63-3.1L236.63-3.1 236.63-5.05Q235.18-3.15 232.88-2.13 230.58-1.1 227.88-1.1L227.88-1.1Q222.58-1.1 219.53-4 216.48-6.9 216.48-12.6L216.48-12.6 216.48-26.5 221.28-26.5 221.28-13.15Q221.28-9.35 223.13-7.38 224.98-5.4 228.43-5.4L228.43-5.4Q232.23-5.4 234.43-7.7 236.63-10 236.63-14.2L236.63-14.2 236.63-26.5Z" opacity="1" transform="matrix(1,0,0,1,0,0)" fill="#ffffff" class="undefined-text-0" data-fill-palette-color="primary" id="text-0"></path></svg></g></svg></g></svg></g></svg></g><g transform="matrix(1,0,0,1,142.46354455813955,0)"><svg viewBox="0 0 110.5929108837209 110.59291088372092" height="110.59291088372092" width="110.5929108837209"><g><svg></svg></g><g id="icon-0"><svg viewBox="0 0 110.5929108837209 110.59291088372092" height="110.59291088372092" width="110.5929108837209"><g><path d="M33.178 110.593c-18.324 0-33.178-14.854-33.178-33.178v-44.237c0-18.324 14.854-33.178 33.178-33.178h44.237c18.324 0 33.178 14.854 33.178 33.178v44.237c0 18.324-14.854 33.178-33.178 33.178z" fill="#ffffff" data-fill-palette-color="accent"></path></g><g transform="matrix(1,0,0,1,21.159553337819688,22.118582176744184)"><svg viewBox="0 0 68.27380420808153 66.35574653023255" height="66.35574653023255" width="68.27380420808153"><g><svg xmlns="http://www.w3.org/2000/svg" data-name="Layer 1" viewBox="2.209634780883789 3.550001859664917 95.56482696533203 92.88006591796875" x="0" y="0" height="66.35574653023255" width="68.27380420808153" class="icon-x-0" data-fill-palette-color="quaternary" id="x-0"><path d="M3.61 96.43A1.6 1.6 0 0 0 5 95.09a9.57 9.57 0 0 1 3.34-5.77 8.7 8.7 0 0 1 1.53-1 7.56 7.56 0 0 1 0.85-0.4c0.27-0.12 0.68-0.27 1-0.41l4.41-1.73L35.23 78.1a14.37 14.37 0 0 0 4.57 5.29 17.72 17.72 0 0 0 20.68-0.14 14.53 14.53 0 0 0 4.4-5.17C72.41 81.13 79 83.75 84.63 86l4.29 1.69a9.54 9.54 0 0 1 6.17 7.43 1.52 1.52 0 0 0 1.52 1.31 1.41 1.41 0 0 0 1.14-1.65 12.28 12.28 0 0 0-3.53-7.52 12.84 12.84 0 0 0-4-2.7L86 82.68c-5.51-2.46-11.87-5.26-19.2-8.46l0.06-4 0-2.39 0.06-0.08 0.24-0.33c0.33-0.43 0.63-0.89 0.93-1.35a31.57 31.57 0 0 0 4.47-12.27 15.76 15.76 0 0 0 5.42-9 16.14 16.14 0 0 0 0.32-3.1 7.79 7.79 0 0 0-5.22-7.37c0-1.88 0-3.76 0-5.68a15.45 15.45 0 0 0-2.82-9.07 25.2 25.2 0 0 0-6.55-6.33 20.89 20.89 0 0 0-6.52-2.87c0-1.36 0-2.71 0-4.09h0a2.74 2.74 0 0 0-2.74-2.74H49.47l-0.85 0A19.69 19.69 0 0 0 42.1 5.08a24.45 24.45 0 0 0-10.1 8 26.41 26.41 0 0 0-3.19 5.55A20.92 20.92 0 0 0 27.24 25c-0.11 1-0.12 2.18-0.12 3.07l0 2.82 0 3.39a7.89 7.89 0 0 0-4.17 3.19 7.72 7.72 0 0 0-1.25 3.78l0 0.49v0.41c0 0.27 0 0.53 0 0.8A15.66 15.66 0 0 0 27.59 54a31.92 31.92 0 0 0 4.16 11.66c0.31 0.47 0.59 0.94 0.92 1.38l0.4 0.55 0 2.35 0.06 4.27L14.69 82.34l-4.32 1.94c-0.36 0.17-0.66 0.29-1.07 0.49a10.74 10.74 0 0 0-1.14 0.61 11.84 11.84 0 0 0-2 1.5 12.32 12.32 0 0 0-3.92 7.86A1.4 1.4 0 0 0 3.61 96.43ZM32.39 52.3a2.48 2.48 0 0 0-1-1.73l0 0a10.82 10.82 0 0 1-4.36-7c-0.06-0.35-0.1-0.71-0.12-1.06 0-0.18 0-0.36 0-0.54v-0.43a2.51 2.51 0 0 1 0.44-1.26 2.7 2.7 0 0 1 2.33-1.18h0.09a2.62 2.62 0 0 0 2.66-2.58v0l0.09-5.6c0.05-1.86 0-3.86 0.16-5.42a15.57 15.57 0 0 1 1.21-4.72 21.13 21.13 0 0 1 2.55-4.39 19.12 19.12 0 0 1 7.82-6.21A14.26 14.26 0 0 1 48.9 9.09l0.6 0h2.3c0 1.21 0 2.43 0 3.63v0a2.73 2.73 0 0 0 2.45 2.7c4.67 0.47 8.94 3.5 11.74 7.34a10.16 10.16 0 0 1 1.86 5.92l0 7.79v0.08a2.57 2.57 0 0 0 2.62 2.53 2.77 2.77 0 0 1 2.36 1.35 2.83 2.83 0 0 1 0.36 1.31 11.18 11.18 0 0 1-0.19 2.08 10.84 10.84 0 0 1-4.16 6.65l0 0a2.42 2.42 0 0 0-1 1.68 27.69 27.69 0 0 1-3.68 11.41c-0.24 0.39-0.48 0.77-0.74 1.12l-0.19 0.27-0.12 0.18c-0.07 0.1-0.14 0.21-0.21 0.32a4.31 4.31 0 0 0-0.54 1.45 4.23 4.23 0 0 0-0.06 0.76v1.07l0 1.41 0.08 5.38v0.17a2.08 2.08 0 0 0 0 0.27 25.94 25.94 0 0 1-4.63 3.21 16.92 16.92 0 0 1-15.58 0.13 26.15 26.15 0 0 1-4.76-3.18 2.11 2.11 0 0 0 0.07-0.43v-0.07l0.08-5.72 0-1.47v-1.2a4.25 4.25 0 0 0-0.11-0.82A4.4 4.4 0 0 0 37 65l-0.43-0.63c-0.26-0.37-0.48-0.77-0.73-1.15A27.88 27.88 0 0 1 32.39 52.3Z" fill="#ffffff" data-fill-palette-color="quaternary"></path><path d="M86.62 8.86L88.05 9a1.72 1.72 0 0 1 1.39 1.4l0.11 1.43c0 0.49 0.09 1 0.15 1.42a17 17 0 0 0 1 4.45 4.42 4.42 0 0 0 1.47 0.13 3.68 3.68 0 0 0 1.28-0.13 17 17 0 0 0 1-4.45c0.06-0.46 0.11-0.93 0.15-1.42l0.06-0.74 0-0.38c0-0.15 0-0.2 0-0.45a6.53 6.53 0 0 0-6.59-6.58c-0.25 0-0.29 0-0.44 0l-0.38 0-0.74 0.06-1.42 0.15A16.94 16.94 0 0 0 80.75 5a4.34 4.34 0 0 0-0.12 1.44 3.57 3.57 0 0 0 0.12 1.24A16.94 16.94 0 0 0 85.2 8.7Z" fill="#ffffff" data-fill-palette-color="quaternary"></path><path d="M5.31 11.06l0.06 0.74c0 0.49 0.1 1 0.15 1.42a16.94 16.94 0 0 0 1.05 4.45A4.33 4.33 0 0 0 8 17.8a3.57 3.57 0 0 0 1.24-0.12 16.94 16.94 0 0 0 1.05-4.45c0.06-0.46 0.11-0.93 0.15-1.42l0.12-1.43A1.72 1.72 0 0 1 12 9l1.43-0.11 1.42-0.15a17 17 0 0 0 4.45-1 4.42 4.42 0 0 0 0.13-1.47 3.68 3.68 0 0 0-0.13-1.28 17 17 0 0 0-4.45-1L13.4 3.75l-0.74-0.06-0.38 0c-0.15 0-0.2 0-0.45 0a6.53 6.53 0 0 0-6.58 6.59c0 0.25 0 0.29 0 0.44Z" fill="#ffffff" data-fill-palette-color="quaternary"></path><path d="M7.17 70.91a6.51 6.51 0 0 0 4.67 1.91c0.25 0 0.29 0 0.44 0l0.38 0 0.74-0.06 1.42-0.15a16.94 16.94 0 0 0 4.45-1.05 4.33 4.33 0 0 0 0.12-1.44 3.57 3.57 0 0 0-0.12-1.24 16.94 16.94 0 0 0-4.45-1.05l-1.42-0.15L12 67.5a1.72 1.72 0 0 1-1.39-1.4l-0.11-1.43c0-0.49-0.09-1-0.15-1.42a17 17 0 0 0-1-4.45 4.42 4.42 0 0 0-1.47-0.13 3.68 3.68 0 0 0-1.28 0.13 17 17 0 0 0-1 4.45c-0.06 0.46-0.11 0.93-0.15 1.42l-0.06 0.74 0 0.38c0 0.15 0 0.2 0 0.45A6.52 6.52 0 0 0 7.17 70.91Z" fill="#ffffff" data-fill-palette-color="quaternary"></path><path d="M80.75 71.53a17 17 0 0 0 4.45 1l1.42 0.15 0.74 0.06 0.38 0c0.15 0 0.2 0 0.45 0a6.53 6.53 0 0 0 6.58-6.59c0-0.25 0-0.29 0-0.44l0-0.38-0.06-0.74c0-0.49-0.1-1-0.15-1.42a16.94 16.94 0 0 0-1.05-4.45A4.34 4.34 0 0 0 92 58.67a3.57 3.57 0 0 0-1.24 0.12 16.94 16.94 0 0 0-1.05 4.45c-0.06 0.46-0.11 0.93-0.15 1.42l-0.12 1.43a1.72 1.72 0 0 1-1.4 1.39l-1.43 0.11-1.42 0.15a17 17 0 0 0-4.45 1 4.42 4.42 0 0 0-0.13 1.47A3.68 3.68 0 0 0 80.75 71.53Z" fill="#ffffff" data-fill-palette-color="quaternary"></path><path d="M43.2 32.59a2.74 2.74 0 0 0 1.22 0.31 7.6 7.6 0 0 1 2.07-1.72 5.7 5.7 0 0 1 3-0.69 4.93 4.93 0 0 1 3.06 1.24 4.68 4.68 0 0 1 1.56 3 4.78 4.78 0 0 1-0.8 3.28 5.13 5.13 0 0 1-1.18 1.21l-0.35 0.23c-0.25 0.14-0.53 0.3-0.77 0.48a7.71 7.71 0 0 0-1.34 1.17 7.4 7.4 0 0 0-1.93 5.76 31.44 31.44 0 0 0 0.61 3.44c0 0.13 0.7 0.23 1.47 0.23h0c0.7 0 1.25-0.11 1.28-0.23a31.42 31.42 0 0 0 0.61-3.44 3.67 3.67 0 0 1 1.37-2.34 3.36 3.36 0 0 1 0.61-0.38c0.11-0.06 0.21-0.09 0.34-0.15s0.53-0.25 0.78-0.4a9.62 9.62 0 0 0 1.07-16 9.3 9.3 0 0 0-6.61-1.87 8.77 8.77 0 0 0-5.24 2.42A7.42 7.42 0 0 0 42 31.81C41.94 32 42.49 32.32 43.2 32.59Z" fill="#ffffff" data-fill-palette-color="quaternary"></path><circle cx="50.02" cy="57.41" r="2.7" fill="#ffffff" data-fill-palette-color="quaternary"></circle></svg></g></svg></g></svg></g></svg></g><g></g></svg></g></svg><rect width="395.52" height="209.508426740093" fill="none" stroke="none" visibility="hidden"></rect></g></svg></g></svg>